<svg width="315" height="230" viewBox="0 0 315 230" fill="none" xmlns="http://www.w3.org/2000/svg">
<path d="M75.3906 132.703C72.6562 133.745 69.3359 134.591 65.4297 135.242C63.0859 135.633 59.3099 136.154 54.1016 136.805L43.1641 138.367C36.6536 139.279 31.5104 141.753 27.7344 145.789C24.0885 149.565 22.2656 154.188 22.2656 159.656C22.2656 165.516 24.2188 170.268 28.125 173.914C31.901 177.56 36.7839 179.383 42.7734 179.383C51.888 179.383 59.5052 176.518 65.625 170.789C72.1354 164.799 75.3906 156.987 75.3906 147.352V132.703ZM75.9766 172.352C72.2005 177.951 66.9922 182.378 60.3516 185.633C54.2318 188.628 47.9167 190.125 41.4062 190.125C32.1615 190.125 24.6094 187.326 18.75 181.727C12.8906 176.128 9.96094 168.901 9.96094 160.047C9.96094 150.411 13.2161 142.924 19.7266 137.586C25.5859 132.898 33.9844 129.969 44.9219 128.797C57.2917 127.234 65.1693 125.737 68.5547 124.305C73.112 122.482 75.3906 119.096 75.3906 114.148C75.3906 106.336 73.6328 100.607 70.1172 96.9609C66.6016 93.3151 61.1979 91.4922 53.9062 91.4922C45.7031 91.4922 39.3229 93.3802 34.7656 97.1562C29.9479 101.193 27.4089 106.987 27.1484 114.539H15.2344C15.3646 104.383 18.9453 96.2448 25.9766 90.125C33.138 84.0052 42.4479 80.9453 53.9062 80.9453C64.3229 80.9453 72.4609 83.5495 78.3203 88.7578C84.4401 94.2266 87.5 102.104 87.5 112.391V169.031C87.5 172.547 87.6953 174.891 88.0859 176.062C88.4766 177.625 89.5182 178.406 91.2109 178.406H95.5078V187.391C93.6849 187.651 91.9271 187.846 90.2344 187.977C89.3229 188.107 88.2161 188.172 86.9141 188.172C83.7891 188.172 81.1849 186.935 79.1016 184.461C77.0182 181.987 75.9766 178.471 75.9766 173.914V172.352ZM99.9609 187.195V43.25H111.875V101.062C114.349 94.9427 118.385 89.9948 123.984 86.2188C129.583 82.5729 135.443 80.75 141.562 80.75C153.802 80.75 163.438 86.4141 170.469 97.7422C176.849 107.898 180.039 120.464 180.039 135.438C180.039 150.281 176.849 162.781 170.469 172.938C163.307 184.396 153.672 190.125 141.562 190.125C135.573 190.125 130.039 188.432 124.961 185.047C119.362 181.401 115 176.258 111.875 169.617V187.195H99.9609ZM139.414 91.2969C130.299 91.2969 123.073 95.8542 117.734 104.969C113.177 113.172 110.898 123.263 110.898 135.242C110.898 147.221 113.177 157.312 117.734 165.516C123.073 174.76 130.299 179.383 139.414 179.383C148.398 179.383 155.495 174.76 160.703 165.516C165.391 157.312 167.734 147.221 167.734 135.242C167.734 123.263 165.391 113.172 160.703 104.969C155.495 95.8542 148.398 91.2969 139.414 91.2969ZM261.25 151.258H273.359C272.057 163.237 267.956 172.612 261.055 179.383C253.893 186.414 244.453 189.93 232.734 189.93C219.323 189.93 208.906 185.112 201.484 175.477C194.062 165.971 190.352 152.82 190.352 136.023C190.352 118.445 194.128 104.839 201.68 95.2031C209.232 85.5677 219.844 80.75 233.516 80.75C244.583 80.75 253.633 84.0052 260.664 90.5156C267.435 96.8958 271.146 105.49 271.797 116.297H260.273C259.232 108.615 256.367 102.495 251.68 97.9375C246.862 93.5104 240.807 91.2969 233.516 91.2969C223.75 91.2969 216.198 95.0729 210.859 102.625C205.391 110.307 202.656 121.115 202.656 135.047C202.656 148.979 205.391 159.852 210.859 167.664C216.328 175.346 223.945 179.188 233.711 179.188C241.133 179.188 247.253 176.714 252.07 171.766C256.888 166.948 259.948 160.112 261.25 151.258Z" fill="#002360"/>
<path d="M255.938 141.925C255.152 141.925 254.524 141.652 254.052 141.105C253.598 140.558 253.371 139.829 253.371 138.918V129.593H249.81V126.951H253.371V122H256.068V126.951H259.918V129.593H256.068V138.371C256.068 138.979 256.313 139.283 256.802 139.283H259.499V141.925H255.938Z" fill="#002360" fill-opacity="0.3"/>
<path d="M263.401 142.35C262.476 142.35 261.647 142.168 260.914 141.804C260.198 141.439 259.622 140.903 259.185 140.194C258.766 139.485 258.557 138.625 258.557 137.612C258.557 136.579 258.766 135.729 259.185 135.061C259.622 134.372 260.207 133.856 260.94 133.512C261.691 133.167 262.537 132.995 263.48 132.995H267.408V132.023C267.408 131.153 267.181 130.454 266.727 129.928C266.273 129.401 265.575 129.138 264.632 129.138C263.707 129.138 263 129.391 262.511 129.897C262.022 130.403 261.699 131.062 261.542 131.871L259.028 130.93C259.238 130.12 259.569 129.391 260.023 128.743C260.495 128.075 261.114 127.538 261.883 127.133C262.651 126.728 263.576 126.526 264.658 126.526C266.334 126.526 267.652 127.022 268.612 128.014C269.573 129.006 270.053 130.414 270.053 132.236V138.402C270.053 139.009 270.297 139.313 270.786 139.313H271.886V141.925H269.869C269.258 141.925 268.761 141.743 268.377 141.379C267.993 141.014 267.801 140.518 267.801 139.89V139.799H267.408C267.268 140.103 267.059 140.457 266.779 140.862C266.5 141.267 266.09 141.621 265.549 141.925C265.007 142.209 264.292 142.35 263.401 142.35ZM263.794 139.769C264.877 139.769 265.749 139.414 266.413 138.706C267.076 137.977 267.408 136.984 267.408 135.729V135.425H263.637C262.921 135.425 262.345 135.607 261.909 135.972C261.472 136.316 261.254 136.833 261.254 137.521C261.254 138.21 261.481 138.756 261.935 139.161C262.389 139.566 263.009 139.769 263.794 139.769Z" fill="#002360" fill-opacity="0.3"/>
<path d="M270.842 141.925V126.951H273.487V128.713H273.906C274.15 128.186 274.543 127.72 275.084 127.315C275.625 126.91 276.359 126.708 277.284 126.708C278.244 126.708 279.012 126.941 279.588 127.407C280.182 127.852 280.627 128.429 280.924 129.138H281.343C281.639 128.449 282.067 127.872 282.626 127.407C283.202 126.941 284.014 126.708 285.061 126.708C285.899 126.708 286.641 126.91 287.287 127.315C287.933 127.7 288.448 128.287 288.832 129.077C289.216 129.847 289.408 130.808 289.408 131.963V141.925H286.711V132.206C286.711 131.294 286.493 130.596 286.056 130.11C285.637 129.604 285.035 129.35 284.249 129.35C283.411 129.35 282.739 129.664 282.233 130.292C281.727 130.92 281.474 131.821 281.474 132.995V141.925H278.776V132.206C278.776 131.294 278.558 130.596 278.122 130.11C277.703 129.604 277.1 129.35 276.315 129.35C275.477 129.35 274.805 129.664 274.299 130.292C273.792 130.92 273.539 131.821 273.539 132.995V141.925H270.842Z" fill="#002360" fill-opacity="0.3"/>
<path d="M289 134.514V134.058C289 132.479 289.271 131.132 289.812 130.019C290.37 128.905 291.104 128.044 292.011 127.437C292.919 126.829 293.914 126.526 294.997 126.526C296.253 126.526 297.214 126.799 297.877 127.346C298.558 127.893 299.055 128.48 299.37 129.107H299.789V126.951H302.407V144.993C302.407 145.904 302.171 146.633 301.7 147.18C301.246 147.727 300.618 148 299.815 148H291.121V145.266H298.977C299.483 145.266 299.736 144.963 299.736 144.355V139.586H299.317C299.125 139.951 298.855 140.326 298.505 140.71C298.156 141.095 297.694 141.409 297.118 141.652C296.559 141.895 295.852 142.016 294.997 142.016C293.914 142.016 292.91 141.723 291.985 141.136C291.077 140.528 290.353 139.667 289.812 138.554C289.271 137.42 289 136.073 289 134.514ZM295.73 139.283C296.899 139.283 297.86 138.857 298.61 138.007C299.378 137.136 299.762 135.942 299.762 134.423V134.15C299.762 132.59 299.387 131.396 298.636 130.565C297.886 129.715 296.917 129.29 295.73 129.29C294.578 129.29 293.617 129.715 292.849 130.565C292.099 131.396 291.723 132.59 291.723 134.15V134.423C291.723 135.942 292.099 137.136 292.849 138.007C293.617 138.857 294.578 139.283 295.73 139.283Z" fill="#002360" fill-opacity="0.3"/>
<path d="M307.661 142.199C306.684 142.199 305.811 141.945 305.043 141.439C304.275 140.933 303.672 140.214 303.236 139.283C302.799 138.351 302.581 137.238 302.581 135.942V126.951H305.278V135.729C305.278 137.025 305.558 137.987 306.116 138.614C306.675 139.222 307.452 139.526 308.447 139.526C309.547 139.526 310.428 139.1 311.092 138.25C311.772 137.379 312.113 136.134 312.113 134.514V126.951H314.81V141.925H312.165V139.678H311.746C311.502 140.285 311.065 140.862 310.437 141.409C309.809 141.935 308.883 142.199 307.661 142.199Z" fill="#002360" fill-opacity="0.3"/>
<path d="M241.12 142.92C239.573 142.92 238.153 142.547 236.86 141.8C235.58 141.067 234.567 140.067 233.82 138.8C233.073 137.533 232.7 136.133 232.7 134.6C232.7 133.067 233.073 131.667 233.82 130.4C234.567 129.12 235.573 128.113 236.84 127.38C238.12 126.633 239.527 126.26 241.06 126.26C242.593 126.26 244 126.58 245.28 127.22C246.56 127.86 247.567 128.733 248.3 129.84C249.047 130.947 249.42 132.167 249.42 133.5C249.42 134.447 249.227 135.293 248.84 136.04C248.453 136.787 247.92 137.373 247.24 137.8C246.56 138.227 245.793 138.44 244.94 138.44H243.12C242.987 138.013 242.913 137.6 242.9 137.2C242.753 137.627 242.46 137.973 242.02 138.24C241.593 138.507 241.047 138.64 240.38 138.64C239.647 138.64 239.053 138.44 238.6 138.04C238.147 137.627 237.92 137.087 237.92 136.42C237.92 135.727 238.24 135.147 238.88 134.68C239.52 134.2 240.367 133.92 241.42 133.84L242.58 133.76V133.48C242.58 133.013 242.433 132.64 242.14 132.36C241.86 132.08 241.487 131.94 241.02 131.94C240.553 131.94 240.167 132.087 239.86 132.38C239.553 132.66 239.387 133.027 239.36 133.48L237.46 133.38C237.487 132.78 237.66 132.24 237.98 131.76C238.313 131.28 238.747 130.907 239.28 130.64C239.827 130.36 240.427 130.22 241.08 130.22C241.747 130.22 242.34 130.367 242.86 130.66C243.393 130.94 243.807 131.333 244.1 131.84C244.393 132.347 244.54 132.92 244.54 133.56V135.56C244.54 136.107 244.58 136.62 244.66 137.1H244.9C245.687 137.1 246.313 136.773 246.78 136.12C247.26 135.467 247.5 134.607 247.5 133.54C247.5 132.487 247.22 131.54 246.66 130.7C246.113 129.847 245.347 129.187 244.36 128.72C243.387 128.24 242.287 128 241.06 128C239.833 128 238.733 128.287 237.76 128.86C236.787 129.42 236.02 130.207 235.46 131.22C234.913 132.22 234.64 133.347 234.64 134.6C234.64 135.853 234.913 136.987 235.46 138C236.02 139 236.787 139.78 237.76 140.34C238.733 140.913 239.833 141.2 241.06 141.2C242.833 141.2 244.387 140.847 245.72 140.14L246.56 141.58C245.987 141.993 245.207 142.32 244.22 142.56C243.233 142.8 242.2 142.92 241.12 142.92ZM241.04 137.22C241.507 137.22 241.887 137.053 242.18 136.72C242.473 136.373 242.62 135.92 242.62 135.36V134.98L241.78 135.04C241.207 135.08 240.76 135.213 240.44 135.44C240.12 135.667 239.96 135.96 239.96 136.32C239.96 136.6 240.053 136.82 240.24 136.98C240.427 137.14 240.693 137.22 241.04 137.22Z" fill="#002360" fill-opacity="0.3"/>
</svg>
